<svg version="1.1" viewBox="0.0 0.0 319.46194225721786 110.11811023622047" fill="none" stroke="none" stroke-linecap="square" stroke-miterlimit="10" xmlns:xlink="http://www.w3.org/1999/xlink" xmlns="http://www.w3.org/2000/svg"><clipPath id="p.0"><path d="m0 0l319.46194 0l0 110.11811l-319.46194 0l0 -110.11811z" clip-rule="nonzero"/></clipPath><g clip-path="url(#p.0)"><path fill="#000000" fill-opacity="0.0" d="m0 0l319.46194 0l0 110.11811l-319.46194 0z" fill-rule="evenodd"/><path fill="#111111" d="m8.0 24.00032l0 0c0 -8.836733 7.1635876 -16.00032 16.00032 -16.00032l271.9994 0c4.2435303 0 8.313263 1.6857433 11.313934 4.686385c3.0006409 3.0006418 4.686371 7.070386 4.686371 11.313935l0 63.99936c0 8.836731 -7.163574 16.00032 -16.000305 16.00032l-271.9994 0c-8.836733 0 -16.00032 -7.1635895 -16.00032 -16.00032z" fill-rule="evenodd"/><path fill="#000000" fill-opacity="0.0" d="m16.0 16.0l288.0 0l0 84.031494l-288.0 0z" fill-rule="evenodd"/><path fill="#f1c232" d="m78.758965 65.2625q0 3.6875 5.296875 3.6875q5.3125 0 5.3125 -3.3125q0 -1.75 -1.8125 -2.875q-1.8125 -1.125 -4.40625 -1.859375q-2.578125 -0.75 -5.171875 -1.734375q-2.578125 -1.0 -4.390625 -3.09375q-1.8125 -2.109375 -1.8125 -5.265625q0 -13.375 17.21875 -13.375q6.296875 0 9.515625 2.375q3.234375 2.375 3.234375 6.578125q0 1.546875 -0.40625 2.96875q-0.390625 1.40625 -0.828125 2.0l-0.421875 0.640625l-9.4375 0q1.171875 -1.234375 1.171875 -3.09375q0 -3.46875 -4.53125 -3.46875q-5.703125 0 -5.703125 3.625q0 1.8125 1.8125 2.875q1.8125 1.0625 4.390625 1.6875q2.59375 0.609375 5.203125 1.515625q2.609375 0.90625 4.421875 3.015625q1.8125 2.109375 1.8125 5.46875q0 6.765625 -4.046875 10.046875q-4.046875 3.28125 -12.484375 3.28125q-8.421875 0 -11.515625 -2.984375q-2.296875 -2.25 -2.296875 -6.1875q0 -1.5 0.328125 -3.25l0.15625 -0.859375l9.59375 0l-0.09375 0.640625q-0.109375 0.53125 -0.109375 0.953125zm45.119064 -27.828125q12.843742 0 12.843742 10.5q0 1.765625 -0.375 3.78125l-1.859375 10.671875q-1.28125 7.40625 -5.546875 10.984375q-4.2656174 3.578125 -11.999992 3.578125q-7.734375 0 -10.78125 -3.578125q-2.078125 -2.453125 -2.078125 -6.765625q0 -1.921875 0.4375 -4.21875l1.859375 -10.671875q2.5 -14.28125 17.5 -14.28125zm-5.5 31.25q2.671875 0 4.265625 -1.390625q1.59375 -1.390625 2.234375 -5.125l1.8125 -10.234375q0.171875 -1.0625 0.171875 -1.921875q0 -4.3125 -4.375 -4.3125q-5.5 0.109375 -6.5625 6.234375l-1.8125 10.234375q-0.21875 1.34375 -0.21875 2.78125q0 3.734375 4.484375 3.734375zm44.472313 7.515625l-24.3125 0l6.765625 -38.390625l9.609375 0l-5.28125 30.078125l14.71875 0l-1.5 8.3125zm23.255707 0l0.3125 -8.375l-8.90625 0l-2.609375 8.375l-10.1875 0l13.703125 -38.390625l17.609375 0l0.203125 38.390625l-10.125 0zm-2.1875 -29.0625l-4.21875 13.546875l6.984375 0l0.59375 -13.546875l-3.359375 0zm39.62079 -9.328125q6.078125 0 8.640625 2.65625q1.921875 2.03125 1.921875 5.125q0 1.0625 -0.21875 2.234375l-0.75 4.171875q-0.640625 3.453125 -2.21875 5.59375q-1.5625 2.125 -3.484375 3.03125l4.859375 15.578125l-10.78125 0l-4.46875 -14.34375l-3.3125 0l-2.1875 14.34375l-10.234375 0l6.765625 -38.390625l15.46875 0zm-3.359375 8.3125l-4.0 0l-1.390625 9.28125l3.734375 0q2.828125 0 4.046875 -1.359375q1.234375 -1.359375 1.234375 -3.59375q0 -4.328125 -3.625 -4.328125zm32.483185 -8.3125l-6.71875 38.390625l-9.65625 0l6.765625 -38.390625l9.609375 0z" fill-rule="nonzero"/></g></svg>